<mxfile host="app.diagrams.net" modified="2020-12-10T01:01:03.228Z" agent="5.0 (Macintosh; Intel Mac OS X 11_0_1) AppleWebKit/537.36 (KHTML, like Gecko) Chrome/87.0.4280.67 Safari/537.36 Edg/87.0.664.47" etag="mePWH1ro-zPJPfM9td4h" version="13.10.6" type="github" pages="2">
  <diagram id="QueqKoRBgJmzvUffUsB9" name="Page-1">
    <mxGraphModel dx="576" dy="1919" grid="1" gridSize="10" guides="1" tooltips="1" connect="1" arrows="1" fold="1" page="1" pageScale="1" pageWidth="850" pageHeight="1100" math="0" shadow="0">
      <root>
        <mxCell id="0" />
        <mxCell id="1" parent="0" />
        <mxCell id="epxWoFEz3Q7Jhy87DylI-1" value="" style="outlineConnect=0;fontColor=#232F3E;gradientColor=none;fillColor=#232F3E;strokeColor=none;dashed=0;verticalLabelPosition=bottom;verticalAlign=top;align=center;html=1;fontSize=12;fontStyle=0;aspect=fixed;pointerEvents=1;shape=mxgraph.aws4.user;" parent="1" vertex="1">
          <mxGeometry x="1631" y="-60" width="78" height="78" as="geometry" />
        </mxCell>
        <mxCell id="epxWoFEz3Q7Jhy87DylI-2" value="" style="rounded=0;whiteSpace=wrap;html=1;" parent="1" vertex="1">
          <mxGeometry x="1600" y="30" width="161" height="230" as="geometry" />
        </mxCell>
        <mxCell id="epxWoFEz3Q7Jhy87DylI-3" value="&lt;h1&gt;Palestrante&lt;/h1&gt;&lt;div&gt;- id&lt;/div&gt;&lt;div&gt;- title&lt;/div&gt;&lt;div&gt;- linkedin&lt;br&gt;- twitter&lt;/div&gt;&lt;div&gt;- site&lt;/div&gt;&lt;div&gt;- biography&lt;/div&gt;&lt;div&gt;- email&lt;/div&gt;&lt;div&gt;- photo&lt;/div&gt;&lt;div&gt;&lt;br&gt;&lt;/div&gt;" style="text;html=1;strokeColor=none;fillColor=none;spacing=5;spacingTop=-20;whiteSpace=wrap;overflow=hidden;rounded=0;" parent="1" vertex="1">
          <mxGeometry x="1610.5" y="40" width="140" height="180" as="geometry" />
        </mxCell>
        <mxCell id="epxWoFEz3Q7Jhy87DylI-4" value="" style="rounded=0;whiteSpace=wrap;html=1;" parent="1" vertex="1">
          <mxGeometry x="1961" y="30" width="161" height="230" as="geometry" />
        </mxCell>
        <mxCell id="epxWoFEz3Q7Jhy87DylI-5" value="" style="shape=image;html=1;verticalAlign=top;verticalLabelPosition=bottom;labelBackgroundColor=#ffffff;imageAspect=0;aspect=fixed;image=https://cdn3.iconfinder.com/data/icons/watchify-v1-0-80px/80/microphone-80px-128.png" parent="1" vertex="1">
          <mxGeometry x="1991.5" y="-70" width="100" height="100" as="geometry" />
        </mxCell>
        <mxCell id="epxWoFEz3Q7Jhy87DylI-6" value="&lt;h1&gt;Palestra&lt;/h1&gt;&lt;div&gt;- id&lt;/div&gt;&lt;div&gt;- title&lt;/div&gt;&lt;div&gt;-&amp;nbsp;description&lt;/div&gt;&lt;div&gt;- track&lt;/div&gt;&lt;div&gt;- visible&lt;/div&gt;&lt;div&gt;- scheduler&lt;/div&gt;&lt;div&gt;- [speakers]&lt;/div&gt;&lt;div&gt;- ID Palestrante*****&lt;/div&gt;" style="text;html=1;strokeColor=none;fillColor=none;spacing=5;spacingTop=-20;whiteSpace=wrap;overflow=hidden;rounded=0;" parent="1" vertex="1">
          <mxGeometry x="1971.5" y="40" width="140" height="170" as="geometry" />
        </mxCell>
      </root>
    </mxGraphModel>
  </diagram>
  <diagram id="SeFsZdjMDJgAlflNEWZY" name="APP">
    <mxGraphModel dx="815" dy="468" grid="1" gridSize="10" guides="1" tooltips="1" connect="1" arrows="1" fold="1" page="1" pageScale="1" pageWidth="827" pageHeight="1169" math="0" shadow="0">
      <root>
        <mxCell id="QBcNlLOvGsnF8VPfEatT-0" />
        <mxCell id="QBcNlLOvGsnF8VPfEatT-1" parent="QBcNlLOvGsnF8VPfEatT-0" />
        <mxCell id="QBcNlLOvGsnF8VPfEatT-2" value="" style="verticalLabelPosition=bottom;verticalAlign=top;html=1;shadow=0;dashed=0;strokeWidth=1;shape=mxgraph.android.phone2;strokeColor=#c0c0c0;" vertex="1" parent="QBcNlLOvGsnF8VPfEatT-1">
          <mxGeometry x="40" y="70" width="200" height="390" as="geometry" />
        </mxCell>
        <mxCell id="QBcNlLOvGsnF8VPfEatT-3" value="" style="verticalLabelPosition=bottom;verticalAlign=top;html=1;shadow=0;dashed=0;strokeWidth=1;shape=mxgraph.android.phone2;strokeColor=#c0c0c0;" vertex="1" parent="QBcNlLOvGsnF8VPfEatT-1">
          <mxGeometry x="330" y="70" width="200" height="390" as="geometry" />
        </mxCell>
        <mxCell id="QBcNlLOvGsnF8VPfEatT-4" value="" style="verticalLabelPosition=bottom;verticalAlign=top;html=1;shadow=0;dashed=0;strokeWidth=1;shape=mxgraph.android.phone2;strokeColor=#c0c0c0;" vertex="1" parent="QBcNlLOvGsnF8VPfEatT-1">
          <mxGeometry x="620" y="70" width="200" height="390" as="geometry" />
        </mxCell>
        <mxCell id="QBcNlLOvGsnF8VPfEatT-5" value="" style="verticalLabelPosition=bottom;verticalAlign=top;html=1;shadow=0;dashed=0;strokeWidth=1;shape=mxgraph.android.phone2;strokeColor=#c0c0c0;" vertex="1" parent="QBcNlLOvGsnF8VPfEatT-1">
          <mxGeometry x="900" y="70" width="200" height="390" as="geometry" />
        </mxCell>
        <mxCell id="QBcNlLOvGsnF8VPfEatT-6" value="" style="curved=1;endArrow=classic;html=1;exitX=1;exitY=0.503;exitDx=0;exitDy=0;exitPerimeter=0;entryX=-0.025;entryY=0.549;entryDx=0;entryDy=0;entryPerimeter=0;" edge="1" parent="QBcNlLOvGsnF8VPfEatT-1" source="QBcNlLOvGsnF8VPfEatT-2" target="QBcNlLOvGsnF8VPfEatT-3">
          <mxGeometry width="50" height="50" relative="1" as="geometry">
            <mxPoint x="300" y="570" as="sourcePoint" />
            <mxPoint x="350" y="520" as="targetPoint" />
            <Array as="points">
              <mxPoint x="280" y="220" />
              <mxPoint x="290" y="310" />
            </Array>
          </mxGeometry>
        </mxCell>
        <mxCell id="QBcNlLOvGsnF8VPfEatT-7" value="" style="curved=1;endArrow=classic;html=1;exitX=0.965;exitY=0.497;exitDx=0;exitDy=0;exitPerimeter=0;entryX=0.025;entryY=0.523;entryDx=0;entryDy=0;entryPerimeter=0;" edge="1" parent="QBcNlLOvGsnF8VPfEatT-1" source="QBcNlLOvGsnF8VPfEatT-3" target="QBcNlLOvGsnF8VPfEatT-4">
          <mxGeometry width="50" height="50" relative="1" as="geometry">
            <mxPoint x="530" y="256.1700000000001" as="sourcePoint" />
            <mxPoint x="615" y="274.1100000000001" as="targetPoint" />
            <Array as="points">
              <mxPoint x="570" y="210" />
              <mxPoint x="580" y="300" />
            </Array>
          </mxGeometry>
        </mxCell>
        <mxCell id="QBcNlLOvGsnF8VPfEatT-8" value="" style="curved=1;endArrow=classic;html=1;exitX=0.99;exitY=0.472;exitDx=0;exitDy=0;exitPerimeter=0;entryX=0.02;entryY=0.518;entryDx=0;entryDy=0;entryPerimeter=0;" edge="1" parent="QBcNlLOvGsnF8VPfEatT-1" source="QBcNlLOvGsnF8VPfEatT-4" target="QBcNlLOvGsnF8VPfEatT-5">
          <mxGeometry width="50" height="50" relative="1" as="geometry">
            <mxPoint x="810" y="256.1700000000001" as="sourcePoint" />
            <mxPoint x="895" y="274.1100000000001" as="targetPoint" />
            <Array as="points">
              <mxPoint x="850" y="210" />
              <mxPoint x="860" y="300" />
            </Array>
          </mxGeometry>
        </mxCell>
        <mxCell id="QBcNlLOvGsnF8VPfEatT-10" value="" style="strokeWidth=1;html=1;shadow=0;dashed=0;shape=mxgraph.android.rrect;rSize=0;fillColor=#eeeeee;strokeColor=none;" vertex="1" parent="QBcNlLOvGsnF8VPfEatT-1">
          <mxGeometry x="48" y="394" width="185" height="30" as="geometry" />
        </mxCell>
        <mxCell id="QBcNlLOvGsnF8VPfEatT-11" value="About" style="strokeWidth=1;html=1;shadow=0;dashed=0;shape=mxgraph.android.anchor;fontStyle=1;fontColor=#666666;" vertex="1" parent="QBcNlLOvGsnF8VPfEatT-10">
          <mxGeometry width="46.25" height="30" as="geometry" />
        </mxCell>
        <mxCell id="QBcNlLOvGsnF8VPfEatT-12" value="Palestras" style="strokeWidth=1;html=1;shadow=0;dashed=0;shape=mxgraph.android.rrect;rSize=0;fontStyle=1;fillColor=none;strokeColor=none;fontColor=#666666;" vertex="1" parent="QBcNlLOvGsnF8VPfEatT-10">
          <mxGeometry x="52" width="46.25" height="30" as="geometry" />
        </mxCell>
        <mxCell id="QBcNlLOvGsnF8VPfEatT-13" value="" style="strokeWidth=1;html=1;shadow=0;dashed=0;shape=mxgraph.android.rrect;rSize=0;fillColor=#33b5e5;strokeColor=none;" vertex="1" parent="QBcNlLOvGsnF8VPfEatT-12">
          <mxGeometry y="27" width="46.25" height="3" as="geometry" />
        </mxCell>
        <mxCell id="QBcNlLOvGsnF8VPfEatT-14" value="Palestrantes" style="strokeWidth=1;html=1;shadow=0;dashed=0;shape=mxgraph.android.anchor;fontStyle=1;fontColor=#666666;" vertex="1" parent="QBcNlLOvGsnF8VPfEatT-10">
          <mxGeometry x="122" width="46.25" height="30" as="geometry" />
        </mxCell>
        <mxCell id="QBcNlLOvGsnF8VPfEatT-24" value="" style="strokeWidth=1;html=1;shadow=0;dashed=0;shape=mxgraph.android.rrect;rSize=0;fillColor=#eeeeee;strokeColor=none;" vertex="1" parent="QBcNlLOvGsnF8VPfEatT-1">
          <mxGeometry x="338" y="394" width="185" height="30" as="geometry" />
        </mxCell>
        <mxCell id="QBcNlLOvGsnF8VPfEatT-25" value="About" style="strokeWidth=1;html=1;shadow=0;dashed=0;shape=mxgraph.android.anchor;fontStyle=1;fontColor=#666666;" vertex="1" parent="QBcNlLOvGsnF8VPfEatT-24">
          <mxGeometry width="46.25" height="30" as="geometry" />
        </mxCell>
        <mxCell id="QBcNlLOvGsnF8VPfEatT-26" value="Palestras" style="strokeWidth=1;html=1;shadow=0;dashed=0;shape=mxgraph.android.rrect;rSize=0;fontStyle=1;fillColor=none;fontColor=#666666;strokeColor=none;" vertex="1" parent="QBcNlLOvGsnF8VPfEatT-24">
          <mxGeometry x="53" width="46.25" height="30" as="geometry" />
        </mxCell>
        <mxCell id="QBcNlLOvGsnF8VPfEatT-27" value="" style="strokeWidth=1;html=1;shadow=0;dashed=0;shape=mxgraph.android.rrect;rSize=0;fillColor=#33b5e5;strokeColor=none;" vertex="1" parent="QBcNlLOvGsnF8VPfEatT-26">
          <mxGeometry y="27" width="46.25" height="3" as="geometry" />
        </mxCell>
        <mxCell id="QBcNlLOvGsnF8VPfEatT-28" value="Palestrantes" style="strokeWidth=1;html=1;shadow=0;dashed=0;shape=mxgraph.android.anchor;fontStyle=1;fontColor=#666666;" vertex="1" parent="QBcNlLOvGsnF8VPfEatT-24">
          <mxGeometry x="122" width="46.25" height="30" as="geometry" />
        </mxCell>
        <mxCell id="QBcNlLOvGsnF8VPfEatT-29" value="" style="strokeWidth=1;html=1;shadow=0;dashed=0;shape=mxgraph.android.rrect;rSize=0;fillColor=#eeeeee;strokeColor=none;" vertex="1" parent="QBcNlLOvGsnF8VPfEatT-1">
          <mxGeometry x="628" y="394" width="185" height="30" as="geometry" />
        </mxCell>
        <mxCell id="QBcNlLOvGsnF8VPfEatT-30" value="About" style="strokeWidth=1;html=1;shadow=0;dashed=0;shape=mxgraph.android.anchor;fontStyle=1;fontColor=#666666;" vertex="1" parent="QBcNlLOvGsnF8VPfEatT-29">
          <mxGeometry width="46.25" height="30" as="geometry" />
        </mxCell>
        <mxCell id="QBcNlLOvGsnF8VPfEatT-31" value="Palestras" style="strokeWidth=1;html=1;shadow=0;dashed=0;shape=mxgraph.android.rrect;rSize=0;fontStyle=1;fillColor=none;fontColor=#666666;strokeColor=none;" vertex="1" parent="QBcNlLOvGsnF8VPfEatT-29">
          <mxGeometry x="53" width="46.25" height="30" as="geometry" />
        </mxCell>
        <mxCell id="QBcNlLOvGsnF8VPfEatT-32" value="" style="strokeWidth=1;html=1;shadow=0;dashed=0;shape=mxgraph.android.rrect;rSize=0;fillColor=#33b5e5;strokeColor=none;" vertex="1" parent="QBcNlLOvGsnF8VPfEatT-31">
          <mxGeometry y="27" width="46.25" height="3" as="geometry" />
        </mxCell>
        <mxCell id="QBcNlLOvGsnF8VPfEatT-33" value="Palestrantes" style="strokeWidth=1;html=1;shadow=0;dashed=0;shape=mxgraph.android.anchor;fontStyle=1;fontColor=#666666;" vertex="1" parent="QBcNlLOvGsnF8VPfEatT-29">
          <mxGeometry x="122" width="46.25" height="30" as="geometry" />
        </mxCell>
        <mxCell id="QBcNlLOvGsnF8VPfEatT-34" value="" style="strokeWidth=1;html=1;shadow=0;dashed=0;shape=mxgraph.android.rrect;rSize=0;fillColor=#eeeeee;strokeColor=none;" vertex="1" parent="QBcNlLOvGsnF8VPfEatT-1">
          <mxGeometry x="907.5" y="394" width="185" height="30" as="geometry" />
        </mxCell>
        <mxCell id="QBcNlLOvGsnF8VPfEatT-35" value="About" style="strokeWidth=1;html=1;shadow=0;dashed=0;shape=mxgraph.android.anchor;fontStyle=1;fontColor=#666666;" vertex="1" parent="QBcNlLOvGsnF8VPfEatT-34">
          <mxGeometry width="46.25" height="30" as="geometry" />
        </mxCell>
        <mxCell id="QBcNlLOvGsnF8VPfEatT-36" value="Palestras" style="strokeWidth=1;html=1;shadow=0;dashed=0;shape=mxgraph.android.rrect;rSize=0;fontStyle=1;fillColor=none;fontColor=#666666;strokeColor=none;" vertex="1" parent="QBcNlLOvGsnF8VPfEatT-34">
          <mxGeometry x="53" width="46.25" height="30" as="geometry" />
        </mxCell>
        <mxCell id="QBcNlLOvGsnF8VPfEatT-37" value="" style="strokeWidth=1;html=1;shadow=0;dashed=0;shape=mxgraph.android.rrect;rSize=0;fillColor=#33b5e5;strokeColor=none;" vertex="1" parent="QBcNlLOvGsnF8VPfEatT-36">
          <mxGeometry y="27" width="46.25" height="3" as="geometry" />
        </mxCell>
        <mxCell id="QBcNlLOvGsnF8VPfEatT-38" value="Palestrantes" style="strokeWidth=1;html=1;shadow=0;dashed=0;shape=mxgraph.android.anchor;fontStyle=1;fontColor=#666666;" vertex="1" parent="QBcNlLOvGsnF8VPfEatT-34">
          <mxGeometry x="122" width="46.25" height="30" as="geometry" />
        </mxCell>
        <mxCell id="QBcNlLOvGsnF8VPfEatT-39" value="" style="verticalLabelPosition=bottom;verticalAlign=top;html=1;shadow=0;dashed=0;strokeWidth=1;strokeColor=none;shape=rect;fillColor=#FF3399;" vertex="1" parent="QBcNlLOvGsnF8VPfEatT-1">
          <mxGeometry x="50" y="106" width="181" height="134" as="geometry" />
        </mxCell>
        <mxCell id="QBcNlLOvGsnF8VPfEatT-40" value="" style="verticalLabelPosition=bottom;verticalAlign=bottom;html=1;shadow=0;dashed=0;strokeWidth=1;strokeColor=none;shape=rect;fillColor=#4D4D4D;horizontal=1;" vertex="1" parent="QBcNlLOvGsnF8VPfEatT-1">
          <mxGeometry x="50" y="106" width="180" height="24" as="geometry" />
        </mxCell>
        <mxCell id="QBcNlLOvGsnF8VPfEatT-41" value="&lt;span&gt;MVP Conf 2020&lt;/span&gt;" style="text;html=1;strokeColor=none;fillColor=none;align=center;verticalAlign=middle;whiteSpace=wrap;rounded=0;fontColor=#FFFFFF;" vertex="1" parent="QBcNlLOvGsnF8VPfEatT-1">
          <mxGeometry x="80" y="108" width="120" height="20" as="geometry" />
        </mxCell>
        <mxCell id="QBcNlLOvGsnF8VPfEatT-42" value="&lt;h1 style=&quot;font-size: 11px&quot;&gt;Heading&lt;/h1&gt;&lt;p style=&quot;font-size: 11px&quot;&gt;Lorem ipsum dolor sit amet, consectetur adipisicing elit,incididunt ut labore et dolore magna aliqua.&lt;/p&gt;" style="text;html=1;strokeColor=none;fillColor=none;spacing=5;spacingTop=-20;whiteSpace=wrap;overflow=hidden;rounded=0;fontColor=#B3B3B3;fontSize=11;" vertex="1" parent="QBcNlLOvGsnF8VPfEatT-1">
          <mxGeometry x="50" y="250" width="190" height="70" as="geometry" />
        </mxCell>
        <mxCell id="QBcNlLOvGsnF8VPfEatT-43" value="See more..." style="rounded=1;html=1;shadow=0;dashed=0;whiteSpace=wrap;fontSize=10;fillColor=#E6E6E6;align=center;strokeColor=#E6E6E6;fontColor=#333333;" vertex="1" parent="QBcNlLOvGsnF8VPfEatT-1">
          <mxGeometry x="60" y="370" width="160" height="16.88" as="geometry" />
        </mxCell>
        <mxCell id="QBcNlLOvGsnF8VPfEatT-44" value="" style="verticalLabelPosition=bottom;verticalAlign=top;html=1;shadow=0;dashed=0;strokeWidth=1;strokeColor=none;shape=rect;fillColor=#0099cc;fontSize=11;fontColor=#B3B3B3;" vertex="1" parent="QBcNlLOvGsnF8VPfEatT-1">
          <mxGeometry x="60" y="320" width="160" height="40" as="geometry" />
        </mxCell>
        <mxCell id="QBcNlLOvGsnF8VPfEatT-45" value="" style="verticalLabelPosition=bottom;verticalAlign=bottom;html=1;shadow=0;dashed=0;strokeWidth=1;strokeColor=none;shape=rect;fillColor=#4D4D4D;horizontal=1;" vertex="1" parent="QBcNlLOvGsnF8VPfEatT-1">
          <mxGeometry x="340.5" y="104" width="180" height="24" as="geometry" />
        </mxCell>
        <mxCell id="QBcNlLOvGsnF8VPfEatT-46" value="&lt;span&gt;Palestras&lt;/span&gt;" style="text;html=1;strokeColor=none;fillColor=none;align=center;verticalAlign=middle;whiteSpace=wrap;rounded=0;fontColor=#FFFFFF;" vertex="1" parent="QBcNlLOvGsnF8VPfEatT-1">
          <mxGeometry x="370.5" y="106" width="120" height="20" as="geometry" />
        </mxCell>
        <mxCell id="QBcNlLOvGsnF8VPfEatT-51" value="" style="group" vertex="1" connectable="0" parent="QBcNlLOvGsnF8VPfEatT-1">
          <mxGeometry x="340.5" y="130" width="179.5" height="60" as="geometry" />
        </mxCell>
        <mxCell id="QBcNlLOvGsnF8VPfEatT-47" value="" style="verticalLabelPosition=bottom;verticalAlign=top;html=1;shadow=0;dashed=0;strokeWidth=1;strokeColor=#666666;shape=rect;fillColor=#f5f5f5;fontSize=11;fontColor=#333333;" vertex="1" parent="QBcNlLOvGsnF8VPfEatT-51">
          <mxGeometry width="179.5" height="60" as="geometry" />
        </mxCell>
        <mxCell id="QBcNlLOvGsnF8VPfEatT-48" value="Titulo" style="text;html=1;strokeColor=none;fillColor=none;align=center;verticalAlign=middle;whiteSpace=wrap;rounded=0;fontSize=11;fontStyle=1" vertex="1" parent="QBcNlLOvGsnF8VPfEatT-51">
          <mxGeometry x="10.5" width="40" height="20" as="geometry" />
        </mxCell>
        <mxCell id="QBcNlLOvGsnF8VPfEatT-50" value="&lt;h1 style=&quot;text-align: left; font-size: 10px;&quot;&gt;&lt;span style=&quot;font-size: 10px; font-weight: normal;&quot;&gt;Lorem ipsum dolor sit amet, consectetur adipisicing elit.&lt;/span&gt;&lt;/h1&gt;" style="text;html=1;strokeColor=none;fillColor=none;align=center;verticalAlign=middle;whiteSpace=wrap;rounded=0;fontSize=10;fontColor=#000000;" vertex="1" parent="QBcNlLOvGsnF8VPfEatT-51">
          <mxGeometry x="10.5" y="30" width="160" height="20" as="geometry" />
        </mxCell>
        <mxCell id="QBcNlLOvGsnF8VPfEatT-52" value="" style="group" vertex="1" connectable="0" parent="QBcNlLOvGsnF8VPfEatT-1">
          <mxGeometry x="340.5" y="190" width="179.5" height="60" as="geometry" />
        </mxCell>
        <mxCell id="QBcNlLOvGsnF8VPfEatT-53" value="" style="verticalLabelPosition=bottom;verticalAlign=top;html=1;shadow=0;dashed=0;strokeWidth=1;strokeColor=#666666;shape=rect;fillColor=#f5f5f5;fontSize=11;fontColor=#333333;" vertex="1" parent="QBcNlLOvGsnF8VPfEatT-52">
          <mxGeometry width="179.5" height="60" as="geometry" />
        </mxCell>
        <mxCell id="QBcNlLOvGsnF8VPfEatT-54" value="Titulo" style="text;html=1;strokeColor=none;fillColor=none;align=center;verticalAlign=middle;whiteSpace=wrap;rounded=0;fontSize=11;fontStyle=1" vertex="1" parent="QBcNlLOvGsnF8VPfEatT-52">
          <mxGeometry x="10.5" width="40" height="20" as="geometry" />
        </mxCell>
        <mxCell id="QBcNlLOvGsnF8VPfEatT-55" value="&lt;h1 style=&quot;text-align: left; font-size: 10px;&quot;&gt;&lt;span style=&quot;font-size: 10px; font-weight: normal;&quot;&gt;Lorem ipsum dolor sit amet, consectetur adipisicing elit.&lt;/span&gt;&lt;/h1&gt;" style="text;html=1;strokeColor=none;fillColor=none;align=center;verticalAlign=middle;whiteSpace=wrap;rounded=0;fontSize=10;fontColor=#000000;" vertex="1" parent="QBcNlLOvGsnF8VPfEatT-52">
          <mxGeometry x="10.5" y="30" width="160" height="20" as="geometry" />
        </mxCell>
        <mxCell id="QBcNlLOvGsnF8VPfEatT-56" value="" style="group" vertex="1" connectable="0" parent="QBcNlLOvGsnF8VPfEatT-1">
          <mxGeometry x="340.5" y="250" width="179.5" height="60" as="geometry" />
        </mxCell>
        <mxCell id="QBcNlLOvGsnF8VPfEatT-57" value="" style="verticalLabelPosition=bottom;verticalAlign=top;html=1;shadow=0;dashed=0;strokeWidth=1;strokeColor=#666666;shape=rect;fillColor=#f5f5f5;fontSize=11;fontColor=#333333;" vertex="1" parent="QBcNlLOvGsnF8VPfEatT-56">
          <mxGeometry width="179.5" height="60" as="geometry" />
        </mxCell>
        <mxCell id="QBcNlLOvGsnF8VPfEatT-58" value="Titulo" style="text;html=1;strokeColor=none;fillColor=none;align=center;verticalAlign=middle;whiteSpace=wrap;rounded=0;fontSize=11;fontStyle=1" vertex="1" parent="QBcNlLOvGsnF8VPfEatT-56">
          <mxGeometry x="10.5" width="40" height="20" as="geometry" />
        </mxCell>
        <mxCell id="QBcNlLOvGsnF8VPfEatT-59" value="&lt;h1 style=&quot;text-align: left; font-size: 10px;&quot;&gt;&lt;span style=&quot;font-size: 10px; font-weight: normal;&quot;&gt;Lorem ipsum dolor sit amet, consectetur adipisicing elit.&lt;/span&gt;&lt;/h1&gt;" style="text;html=1;strokeColor=none;fillColor=none;align=center;verticalAlign=middle;whiteSpace=wrap;rounded=0;fontSize=10;fontColor=#000000;" vertex="1" parent="QBcNlLOvGsnF8VPfEatT-56">
          <mxGeometry x="10.5" y="30" width="160" height="20" as="geometry" />
        </mxCell>
        <mxCell id="QBcNlLOvGsnF8VPfEatT-60" value="" style="group" vertex="1" connectable="0" parent="QBcNlLOvGsnF8VPfEatT-1">
          <mxGeometry x="340.5" y="310" width="179.5" height="60" as="geometry" />
        </mxCell>
        <mxCell id="QBcNlLOvGsnF8VPfEatT-61" value="" style="verticalLabelPosition=bottom;verticalAlign=top;html=1;shadow=0;dashed=0;strokeWidth=1;strokeColor=#666666;shape=rect;fillColor=#f5f5f5;fontSize=11;fontColor=#333333;" vertex="1" parent="QBcNlLOvGsnF8VPfEatT-60">
          <mxGeometry width="179.5" height="60" as="geometry" />
        </mxCell>
        <mxCell id="QBcNlLOvGsnF8VPfEatT-62" value="Titulo" style="text;html=1;strokeColor=none;fillColor=none;align=center;verticalAlign=middle;whiteSpace=wrap;rounded=0;fontSize=11;fontStyle=1" vertex="1" parent="QBcNlLOvGsnF8VPfEatT-60">
          <mxGeometry x="10.5" width="40" height="20" as="geometry" />
        </mxCell>
        <mxCell id="QBcNlLOvGsnF8VPfEatT-63" value="&lt;h1 style=&quot;text-align: left; font-size: 10px;&quot;&gt;&lt;span style=&quot;font-size: 10px; font-weight: normal;&quot;&gt;Lorem ipsum dolor sit amet, consectetur adipisicing elit.&lt;/span&gt;&lt;/h1&gt;" style="text;html=1;strokeColor=none;fillColor=none;align=center;verticalAlign=middle;whiteSpace=wrap;rounded=0;fontSize=10;fontColor=#000000;" vertex="1" parent="QBcNlLOvGsnF8VPfEatT-60">
          <mxGeometry x="10.5" y="30" width="160" height="20" as="geometry" />
        </mxCell>
        <mxCell id="QBcNlLOvGsnF8VPfEatT-65" value="" style="verticalLabelPosition=bottom;verticalAlign=bottom;html=1;shadow=0;dashed=0;strokeWidth=1;strokeColor=none;shape=rect;fillColor=#4D4D4D;horizontal=1;" vertex="1" parent="QBcNlLOvGsnF8VPfEatT-1">
          <mxGeometry x="630" y="106" width="180" height="24" as="geometry" />
        </mxCell>
        <mxCell id="QBcNlLOvGsnF8VPfEatT-66" value="&lt;span&gt;Palestrantes&lt;/span&gt;" style="text;html=1;strokeColor=none;fillColor=none;align=center;verticalAlign=middle;whiteSpace=wrap;rounded=0;fontColor=#FFFFFF;" vertex="1" parent="QBcNlLOvGsnF8VPfEatT-1">
          <mxGeometry x="660" y="108" width="120" height="20" as="geometry" />
        </mxCell>
        <mxCell id="QBcNlLOvGsnF8VPfEatT-67" value="" style="verticalLabelPosition=bottom;verticalAlign=top;html=1;shadow=0;dashed=0;strokeWidth=1;shape=mxgraph.android.contact_badge_focused;fillColor=#4D4D4D;fontSize=10;fontColor=#000000;" vertex="1" parent="QBcNlLOvGsnF8VPfEatT-1">
          <mxGeometry x="641" y="140" width="40" height="40" as="geometry" />
        </mxCell>
        <mxCell id="QBcNlLOvGsnF8VPfEatT-72" value="&lt;span style=&quot;color: rgb(0 , 0 , 0) ; font-family: &amp;#34;helvetica&amp;#34; ; font-size: 11px ; font-style: normal ; font-weight: 700 ; letter-spacing: normal ; text-align: center ; text-indent: 0px ; text-transform: none ; word-spacing: 0px ; background-color: rgb(248 , 249 , 250) ; display: inline ; float: none&quot;&gt;Palestrante&amp;nbsp;&lt;/span&gt;" style="text;whiteSpace=wrap;html=1;fontSize=10;fontColor=#000000;" vertex="1" parent="QBcNlLOvGsnF8VPfEatT-1">
          <mxGeometry x="690" y="140" width="80" height="20" as="geometry" />
        </mxCell>
        <mxCell id="QBcNlLOvGsnF8VPfEatT-73" value="" style="verticalLabelPosition=bottom;verticalAlign=top;html=1;shadow=0;dashed=0;strokeWidth=1;shape=mxgraph.android.contact_badge_focused;fillColor=#4D4D4D;fontSize=10;fontColor=#000000;" vertex="1" parent="QBcNlLOvGsnF8VPfEatT-1">
          <mxGeometry x="641" y="190" width="40" height="40" as="geometry" />
        </mxCell>
        <mxCell id="QBcNlLOvGsnF8VPfEatT-74" value="&lt;span style=&quot;color: rgb(0 , 0 , 0) ; font-family: &amp;#34;helvetica&amp;#34; ; font-size: 11px ; font-style: normal ; font-weight: 700 ; letter-spacing: normal ; text-align: center ; text-indent: 0px ; text-transform: none ; word-spacing: 0px ; background-color: rgb(248 , 249 , 250) ; display: inline ; float: none&quot;&gt;Palestrante&amp;nbsp;&lt;/span&gt;" style="text;whiteSpace=wrap;html=1;fontSize=10;fontColor=#000000;" vertex="1" parent="QBcNlLOvGsnF8VPfEatT-1">
          <mxGeometry x="690" y="190" width="80" height="20" as="geometry" />
        </mxCell>
        <mxCell id="QBcNlLOvGsnF8VPfEatT-75" value="" style="verticalLabelPosition=bottom;verticalAlign=top;html=1;shadow=0;dashed=0;strokeWidth=1;shape=mxgraph.android.contact_badge_focused;fillColor=#4D4D4D;fontSize=10;fontColor=#000000;" vertex="1" parent="QBcNlLOvGsnF8VPfEatT-1">
          <mxGeometry x="641" y="240" width="40" height="40" as="geometry" />
        </mxCell>
        <mxCell id="QBcNlLOvGsnF8VPfEatT-76" value="&lt;span style=&quot;color: rgb(0 , 0 , 0) ; font-family: &amp;#34;helvetica&amp;#34; ; font-size: 11px ; font-style: normal ; font-weight: 700 ; letter-spacing: normal ; text-align: center ; text-indent: 0px ; text-transform: none ; word-spacing: 0px ; background-color: rgb(248 , 249 , 250) ; display: inline ; float: none&quot;&gt;Palestrante&amp;nbsp;&lt;/span&gt;" style="text;whiteSpace=wrap;html=1;fontSize=10;fontColor=#000000;" vertex="1" parent="QBcNlLOvGsnF8VPfEatT-1">
          <mxGeometry x="690" y="240" width="80" height="20" as="geometry" />
        </mxCell>
        <mxCell id="QBcNlLOvGsnF8VPfEatT-77" value="" style="verticalLabelPosition=bottom;verticalAlign=top;html=1;shadow=0;dashed=0;strokeWidth=1;shape=mxgraph.android.contact_badge_focused;fillColor=#4D4D4D;fontSize=10;fontColor=#000000;" vertex="1" parent="QBcNlLOvGsnF8VPfEatT-1">
          <mxGeometry x="641" y="290" width="40" height="40" as="geometry" />
        </mxCell>
        <mxCell id="QBcNlLOvGsnF8VPfEatT-78" value="&lt;span style=&quot;color: rgb(0 , 0 , 0) ; font-family: &amp;#34;helvetica&amp;#34; ; font-size: 11px ; font-style: normal ; font-weight: 700 ; letter-spacing: normal ; text-align: center ; text-indent: 0px ; text-transform: none ; word-spacing: 0px ; background-color: rgb(248 , 249 , 250) ; display: inline ; float: none&quot;&gt;Palestrante&amp;nbsp;&lt;/span&gt;" style="text;whiteSpace=wrap;html=1;fontSize=10;fontColor=#000000;" vertex="1" parent="QBcNlLOvGsnF8VPfEatT-1">
          <mxGeometry x="690" y="290" width="80" height="20" as="geometry" />
        </mxCell>
        <mxCell id="QBcNlLOvGsnF8VPfEatT-79" value="" style="verticalLabelPosition=bottom;verticalAlign=top;html=1;shadow=0;dashed=0;strokeWidth=1;shape=mxgraph.android.contact_badge_focused;fillColor=#4D4D4D;fontSize=10;fontColor=#000000;" vertex="1" parent="QBcNlLOvGsnF8VPfEatT-1">
          <mxGeometry x="641" y="340" width="40" height="40" as="geometry" />
        </mxCell>
        <mxCell id="QBcNlLOvGsnF8VPfEatT-80" value="&lt;span style=&quot;color: rgb(0 , 0 , 0) ; font-family: &amp;#34;helvetica&amp;#34; ; font-size: 11px ; font-style: normal ; font-weight: 700 ; letter-spacing: normal ; text-align: center ; text-indent: 0px ; text-transform: none ; word-spacing: 0px ; background-color: rgb(248 , 249 , 250) ; display: inline ; float: none&quot;&gt;Palestrante&amp;nbsp;&lt;/span&gt;" style="text;whiteSpace=wrap;html=1;fontSize=10;fontColor=#000000;" vertex="1" parent="QBcNlLOvGsnF8VPfEatT-1">
          <mxGeometry x="690" y="340" width="80" height="20" as="geometry" />
        </mxCell>
        <mxCell id="QBcNlLOvGsnF8VPfEatT-81" value="" style="verticalLabelPosition=bottom;verticalAlign=bottom;html=1;shadow=0;dashed=0;strokeWidth=1;strokeColor=none;shape=rect;fillColor=#4D4D4D;horizontal=1;" vertex="1" parent="QBcNlLOvGsnF8VPfEatT-1">
          <mxGeometry x="910" y="106" width="180" height="24" as="geometry" />
        </mxCell>
        <mxCell id="QBcNlLOvGsnF8VPfEatT-82" value="&lt;span&gt;Palestrante&lt;/span&gt;" style="text;html=1;strokeColor=none;fillColor=none;align=center;verticalAlign=middle;whiteSpace=wrap;rounded=0;fontColor=#FFFFFF;" vertex="1" parent="QBcNlLOvGsnF8VPfEatT-1">
          <mxGeometry x="940" y="108" width="120" height="20" as="geometry" />
        </mxCell>
        <mxCell id="QBcNlLOvGsnF8VPfEatT-83" value="" style="verticalLabelPosition=bottom;verticalAlign=top;html=1;shadow=0;dashed=0;strokeWidth=1;shape=mxgraph.android.contact_badge_focused;fillColor=#4D4D4D;fontSize=10;fontColor=#000000;" vertex="1" parent="QBcNlLOvGsnF8VPfEatT-1">
          <mxGeometry x="921" y="140" width="40" height="40" as="geometry" />
        </mxCell>
        <mxCell id="QBcNlLOvGsnF8VPfEatT-84" value="&lt;span style=&quot;color: rgb(0 , 0 , 0) ; font-family: &amp;#34;helvetica&amp;#34; ; font-size: 11px ; font-style: normal ; font-weight: 700 ; letter-spacing: normal ; text-align: center ; text-indent: 0px ; text-transform: none ; word-spacing: 0px ; background-color: rgb(248 , 249 , 250) ; display: inline ; float: none&quot;&gt;Palestrante&amp;nbsp;&lt;/span&gt;" style="text;whiteSpace=wrap;html=1;fontSize=10;fontColor=#000000;" vertex="1" parent="QBcNlLOvGsnF8VPfEatT-1">
          <mxGeometry x="980" y="140" width="80" height="20" as="geometry" />
        </mxCell>
        <mxCell id="QBcNlLOvGsnF8VPfEatT-85" value="" style="dashed=0;outlineConnect=0;html=1;align=center;labelPosition=center;verticalLabelPosition=bottom;verticalAlign=top;shape=mxgraph.webicons.linkedin;fillColor=#0095DB;gradientColor=#006391;strokeColor=#000000;fontSize=10;fontColor=#000000;" vertex="1" parent="QBcNlLOvGsnF8VPfEatT-1">
          <mxGeometry x="946" y="328.8" width="24.41" height="22.4" as="geometry" />
        </mxCell>
        <mxCell id="QBcNlLOvGsnF8VPfEatT-86" value="" style="dashed=0;outlineConnect=0;html=1;align=center;labelPosition=center;verticalLabelPosition=bottom;verticalAlign=top;shape=mxgraph.webicons.twitter;fillColor=#49EAF7;gradientColor=#137BD0;strokeColor=#000000;fontSize=10;fontColor=#000000;" vertex="1" parent="QBcNlLOvGsnF8VPfEatT-1">
          <mxGeometry x="986" y="328.8" width="25.4" height="22.4" as="geometry" />
        </mxCell>
        <mxCell id="QBcNlLOvGsnF8VPfEatT-88" value="" style="shape=image;html=1;verticalAlign=top;verticalLabelPosition=bottom;labelBackgroundColor=#ffffff;imageAspect=0;aspect=fixed;image=https://cdn0.iconfinder.com/data/icons/simpline-mix/64/simpline_47-128.png;strokeColor=#000000;fillColor=#4D4D4D;fontSize=10;fontColor=#000000;" vertex="1" parent="QBcNlLOvGsnF8VPfEatT-1">
          <mxGeometry x="1026" y="326" width="28" height="28" as="geometry" />
        </mxCell>
        <mxCell id="QBcNlLOvGsnF8VPfEatT-89" value="&lt;h1 style=&quot;font-size: 10px&quot;&gt;Mini-Bio&lt;/h1&gt;&lt;p style=&quot;font-size: 10px&quot;&gt;Lorem ipsum dolor sit amet, consectetur adipisicing elit, sed do eiusmod tempor incididunt ut labore et dolore magna aliqua.&lt;/p&gt;" style="text;html=1;strokeColor=none;fillColor=none;spacing=5;spacingTop=-20;whiteSpace=wrap;overflow=hidden;rounded=0;fontSize=10;fontColor=#000000;" vertex="1" parent="QBcNlLOvGsnF8VPfEatT-1">
          <mxGeometry x="908" y="206" width="190" height="120" as="geometry" />
        </mxCell>
      </root>
    </mxGraphModel>
  </diagram>
</mxfile>
